<?xml version="1.0" encoding="UTF-8" standalone="no"?>
<svg
   width="64pt"
   height="64pt"
   viewBox="0 0 22.577778 22.577778"
   version="1.1"
   id="svg831"
   inkscape:version="1.1.2 (1:1.1+202202050950+0a00cf5339)"
   sodipodi:docname="23 - Chest.svg"
   inkscape:export-filename="/media/taufikramadhan/Data/Tr Design Studio/Project Design/TR Creative Design/Icon Design/Project Hiring/Icon Icons/018 - Gym And Fitness/5 - Send/3 - Flat/23 - Chest.png"
   inkscape:export-xdpi="576"
   inkscape:export-ydpi="576"
   xmlns:inkscape="http://www.inkscape.org/namespaces/inkscape"
   xmlns:sodipodi="http://sodipodi.sourceforge.net/DTD/sodipodi-0.dtd"
   xmlns="http://www.w3.org/2000/svg"
   xmlns:svg="http://www.w3.org/2000/svg"
   xmlns:rdf="http://www.w3.org/1999/02/22-rdf-syntax-ns#"
   xmlns:cc="http://creativecommons.org/ns#"
   xmlns:dc="http://purl.org/dc/elements/1.1/">
  <defs
     id="defs825">
    <pattern
       id="EMFhbasepattern"
       patternUnits="userSpaceOnUse"
       width="6"
       height="6"
       x="0"
       y="0" />
    <pattern
       id="EMFhbasepattern-9"
       patternUnits="userSpaceOnUse"
       width="6"
       height="6"
       x="0"
       y="0" />
    <pattern
       id="EMFhbasepattern-0"
       patternUnits="userSpaceOnUse"
       width="6"
       height="6"
       x="0"
       y="0" />
    <pattern
       id="EMFhbasepattern-7"
       patternUnits="userSpaceOnUse"
       width="6"
       height="6"
       x="0"
       y="0" />
    <pattern
       id="EMFhbasepattern-2"
       patternUnits="userSpaceOnUse"
       width="6"
       height="6"
       x="0"
       y="0" />
    <pattern
       id="EMFhbasepattern-98"
       patternUnits="userSpaceOnUse"
       width="6"
       height="6"
       x="0"
       y="0" />
    <pattern
       id="EMFhbasepattern-6"
       patternUnits="userSpaceOnUse"
       width="6"
       height="6"
       x="0"
       y="0" />
    <pattern
       id="EMFhbasepattern-01"
       patternUnits="userSpaceOnUse"
       width="6"
       height="6"
       x="0"
       y="0" />
    <pattern
       id="EMFhbasepattern-07"
       patternUnits="userSpaceOnUse"
       width="6"
       height="6"
       x="0"
       y="0" />
    <pattern
       id="EMFhbasepattern-8"
       patternUnits="userSpaceOnUse"
       width="6"
       height="6"
       x="0"
       y="0" />
    <pattern
       id="EMFhbasepattern-4"
       patternUnits="userSpaceOnUse"
       width="6"
       height="6"
       x="0"
       y="0" />
    <pattern
       id="EMFhbasepattern-40"
       patternUnits="userSpaceOnUse"
       width="6"
       height="6"
       x="0"
       y="0" />
    <pattern
       id="EMFhbasepattern-08"
       patternUnits="userSpaceOnUse"
       width="6"
       height="6"
       x="0"
       y="0" />
    <pattern
       id="EMFhbasepattern-04"
       patternUnits="userSpaceOnUse"
       width="6"
       height="6"
       x="0"
       y="0" />
    <pattern
       id="EMFhbasepattern-014"
       patternUnits="userSpaceOnUse"
       width="6"
       height="6"
       x="0"
       y="0" />
    <pattern
       id="EMFhbasepattern-27"
       patternUnits="userSpaceOnUse"
       width="6"
       height="6"
       x="0"
       y="0" />
    <pattern
       id="EMFhbasepattern-09"
       patternUnits="userSpaceOnUse"
       width="6"
       height="6"
       x="0"
       y="0" />
    <pattern
       id="EMFhbasepattern-5"
       patternUnits="userSpaceOnUse"
       width="6"
       height="6"
       x="0"
       y="0" />
    <pattern
       id="EMFhbasepattern-018"
       patternUnits="userSpaceOnUse"
       width="6"
       height="6"
       x="0"
       y="0" />
  </defs>
  <sodipodi:namedview
     inkscape:lockguides="true"
     id="base"
     pagecolor="#ffffff"
     bordercolor="#666666"
     borderopacity="1.0"
     inkscape:pageopacity="0.0"
     inkscape:pageshadow="2"
     inkscape:zoom="4.4249417"
     inkscape:cx="56.384924"
     inkscape:cy="41.356477"
     inkscape:document-units="pt"
     inkscape:current-layer="layer1"
     showgrid="false"
     units="pt"
     inkscape:window-width="1366"
     inkscape:window-height="705"
     inkscape:window-x="0"
     inkscape:window-y="31"
     inkscape:window-maximized="1"
     inkscape:pagecheckerboard="true"
     inkscape:showpageshadow="false"
     inkscape:object-paths="true"
     inkscape:snap-intersection-paths="true"
     inkscape:snap-smooth-nodes="true"
     inkscape:snap-midpoints="true"
     showguides="false"
     inkscape:snap-bbox="true"
     inkscape:bbox-nodes="true"
     inkscape:snap-nodes="false"
     inkscape:snap-global="true"
     inkscape:document-rotation="0">
    <inkscape:grid
       type="xygrid"
       id="grid1378" />
    <sodipodi:guide
       position="0.97013831,21.607643"
       orientation="78.000048,0"
       id="guide1380"
       inkscape:locked="true" />
    <sodipodi:guide
       position="0.97013831,0.97013129"
       orientation="0,78.000005"
       id="guide1382"
       inkscape:locked="true" />
    <sodipodi:guide
       position="21.607639,0.97013129"
       orientation="-78.000048,0"
       id="guide1384"
       inkscape:locked="true" />
    <sodipodi:guide
       position="21.607639,21.607643"
       orientation="0,-78.000005"
       id="guide1386"
       inkscape:locked="true" />
  </sodipodi:namedview>
  <metadata
     id="metadata828">
    <rdf:RDF>
      <cc:Work
         rdf:about="">
        <dc:format>image/svg+xml</dc:format>
        <dc:type
           rdf:resource="http://purl.org/dc/dcmitype/StillImage" />
      </cc:Work>
    </rdf:RDF>
  </metadata>
  <g
     inkscape:label="Icon"
     inkscape:groupmode="layer"
     id="layer1"
     transform="translate(0,-274.42223)">
    <g
       id="g456119"
       style="display:inline;stroke-width:0.794881"
       transform="matrix(1.2580507,0,0,1.2580507,-76.109995,-154.02683)">
      <path
         style="color:#000000;fill:#ffccbc;stroke-width:0.794881;stroke-linecap:round;stroke-linejoin:round;stroke-miterlimit:10;-inkscape-stroke:none"
         d="m 73.529269,344.78906 c -0.08318,-0.11998 -0.165282,-0.24078 -0.296875,-0.34375 -0.445097,-0.38561 -0.932456,-0.53422 -1.337891,-0.62695 -0.208582,-0.30763 -0.288807,-0.63265 -0.302734,-0.89258 -0.01084,-0.20231 -0.07953,-0.39636 -0.212891,-0.54687 -0.133364,-0.15052 -0.338186,-0.24805 -0.560547,-0.24805 H 68.125 c -0.222049,0 -0.425045,0.098 -0.558594,0.24805 -0.133548,0.15005 -0.202269,0.34286 -0.21289,0.54492 -0.01356,0.25797 -0.09285,0.58182 -0.296875,0.88672 -0.413968,0.0881 -0.886539,0.23544 -1.347657,0.63672 -0.142846,0.11218 -0.23796,0.2426 -0.324218,0.375 -0.15201,10e-4 -1.046254,-0.015 -1.877947,0.54987 -0.718741,0.53669 -1.055401,1.12611 -1.122087,1.83698 -0.08313,0.013 -0.112282,-6e-5 -0.238282,0.0566 -0.23664,0.1065 -0.521871,0.32761 -0.714843,0.72461 -0.139024,0.28602 -0.16211,0.63965 -0.16211,0.89063 5.12e-4,0.0118 0.0018,0.0236 0.0039,0.0352 l 0.34961,2.58789 c 0.02744,0.20163 0.262713,0.29812 0.423828,0.17382 0.534883,-0.40682 0.63879,-0.91954 0.6875,-1.09765 0.169349,-0.004 0.825653,-0.10403 1.550781,-0.50391 0.121325,0.73964 0.465373,1.69704 1.234375,2.33399 0.04013,1.11662 0.196008,2.62917 0.384766,3.68359 0.08961,0.50055 0.544978,0.85352 1.042969,0.85352 h 5.048828 c 0.498304,0 0.955274,-0.35442 1.044922,-0.85547 0.187856,-1.04995 0.343563,-2.55196 0.384765,-3.67383 0.772108,-0.64391 1.115116,-1.60054 1.236328,-2.33985 0.724732,0.39859 1.379698,0.49991 1.548828,0.50391 0.04903,0.17908 0.154214,0.69137 0.689454,1.09766 0.161552,0.12219 0.394883,0.025 0.421875,-0.17578 l 0.349609,-2.58789 c 0.0014,-0.0117 0.0021,-0.0234 0.002,-0.0352 0,-0.251 -0.02095,-0.60638 -0.160156,-0.89258 -0.193001,-0.39681 -0.480218,-0.61622 -0.716797,-0.72266 -0.125508,-0.0565 -0.153268,-0.0436 -0.236328,-0.0566 -0.06658,-0.71106 -0.403209,-1.30019 -1.122088,-1.83698 -0.818711,-0.55606 -1.732567,-0.58114 -1.909197,-0.58308 z"
         id="path217889"
         sodipodi:nodetypes="cccssssssccccccscccccccsssscccccccscccc" />
      <path
         style="color:#000000;fill:#ffa185;stroke-width:0.794881;stroke-linecap:round;stroke-linejoin:round;stroke-miterlimit:10;-inkscape-stroke:none"
         d="m 67.173828,345.31836 a 0.2645835,0.2645835 0 0 0 -0.333984,0.16797 0.2645835,0.2645835 0 0 0 0.167968,0.33594 c 0,0 0.817375,0.27734 1.669922,0.27734 a 0.2645835,0.2645835 0 0 0 0.265625,-0.26563 0.2645835,0.2645835 0 0 0 -0.265625,-0.26367 c -0.734951,0 -1.503906,-0.25195 -1.503906,-0.25195 z"
         id="path106908" />
      <path
         style="color:#000000;fill:#ffa185;stroke-width:0.794881;stroke-linecap:round;stroke-linejoin:round;stroke-miterlimit:10;-inkscape-stroke:none"
         d="m 71.769531,345.31836 c 0,0 -0.768955,0.25195 -1.503906,0.25195 a 0.2645835,0.2645835 0 0 0 -0.263672,0.26367 0.2645835,0.2645835 0 0 0 0.263672,0.26563 c 0.852547,0 1.671875,-0.27734 1.671875,-0.27734 a 0.2645835,0.2645835 0 0 0 0.167969,-0.33594 0.2645835,0.2645835 0 0 0 -0.335938,-0.16797 z"
         id="path118048" />
      <path
         id="path121645"
         style="color:#000000;fill:#ffa185;stroke-width:3.00428;stroke-linecap:round;stroke-linejoin:round;stroke-miterlimit:10;-inkscape-stroke:none"
         d="m 262.52148,251.57422 c -0.52865,0.0247 -0.94932,0.46087 -0.95117,0.99609 v 6.89453 h 2 v -6.89453 c -0.002,-0.54958 -0.4465,-0.9942 -0.99609,-0.99609 -0.0173,-7e-5 -0.0357,-8e-4 -0.0527,0 z m 0,11.99609 c -0.53135,0.025 -0.9533,0.4659 -0.95117,1.00391 v 6 h -2 c -0.98063,0 -1.65184,-0.40794 -2.17187,-1.07813 -0.52004,-0.67018 -0.82617,-1.63179 -0.82617,-2.56836 -0.002,-0.54961 -0.44649,-0.9942 -0.9961,-0.99609 -0.55249,-0.002 -1.00202,0.4436 -1.0039,0.99609 0,1.35258 0.41094,2.71614 1.24804,3.79493 0.83711,1.07882 2.15923,1.85351 3.75,1.85351 h 2 v 3.46094 h -2 c -0.98063,0 -1.65183,-0.40798 -2.17187,-1.07813 -0.16295,-0.20842 -0.40153,-0.34234 -0.66406,-0.375 -0.26274,-0.034 -0.52832,0.0377 -0.73829,0.19922 -0.43602,0.3385 -0.51395,0.96607 -0.17578,1.40235 0.83711,1.07879 2.15922,1.85156 3.75,1.85156 h 2 v 3.53711 h -0.99609 c -0.49015,0 -0.89229,-0.11086 -1.24805,-0.29492 -0.23753,-0.12181 -0.5139,-0.14359 -0.76758,-0.0605 -0.25142,0.0794 -0.4613,0.2549 -0.58398,0.48828 -0.25523,0.49074 -0.0636,1.09546 0.42773,1.34961 0.63532,0.32844 1.37632,0.51758 2.17188,0.51758 1.33333,0 2.66667,0 4,0 0.79532,0 1.53423,-0.18868 2.16992,-0.51758 0.49131,-0.25414 0.68296,-0.85887 0.42774,-1.34961 -0.25415,-0.4913 -0.85887,-0.68296 -1.34961,-0.42773 -0.35539,0.18406 -0.75767,0.29492 -1.24805,0.29492 h -1.00391 v -3.53711 h 2 c 1.59079,0 2.92071,-0.77273 3.75781,-1.85156 0.33817,-0.43628 0.2583,-1.06385 -0.17773,-1.40235 -0.43631,-0.33815 -1.06388,-0.26029 -1.40234,0.17578 -0.52004,0.67019 -1.19711,1.07813 -2.17774,1.07813 h -2 v -3.46094 h 2 c 1.59078,0 2.92071,-0.77469 3.75781,-1.85351 0.83711,-1.07879 1.24805,-2.44235 1.24805,-3.79493 -0.002,-0.55249 -0.45141,-0.99827 -1.0039,-0.99609 -0.54961,0.002 -0.99422,0.44648 -0.9961,0.99609 0,0.93657 -0.3081,1.89818 -0.82812,2.56836 -0.52004,0.67019 -1.1971,1.07813 -2.17774,1.07813 h -2 v -6 c 0.002,-0.55249 -0.4436,-1.00202 -0.99609,-1.00391 -0.0174,-7e-5 -0.0356,-8e-4 -0.0527,0 z"
         transform="matrix(0.26458334,0,0,0.26458334,0,280.06666)"
         sodipodi:nodetypes="sccccssssccsscccssccsccccsccsccccccsccsccscccsccsscccssccsss" />
      <path
         style="color:#000000;fill:#ffa185;fill-opacity:1;stroke-width:0.794881;stroke-linecap:round;stroke-linejoin:round;stroke-miterlimit:10;-inkscape-stroke:none"
         d="m 67.090203,347.95248 a 0.2645835,0.2645835 0 0 0 -0.263672,0.26367 0.2645835,0.2645835 0 0 0 0.263672,0.26367 0.2645835,0.2645835 0 0 0 0.265625,-0.26367 0.2645835,0.2645835 0 0 0 -0.265625,-0.26367 z"
         id="path135470" />
      <path
         style="color:#000000;fill:#ffa185;fill-opacity:1;stroke-width:0.794881;stroke-linecap:round;stroke-linejoin:round;stroke-miterlimit:10;-inkscape-stroke:none"
         d="m 71.853615,347.95248 a 0.2645835,0.2645835 0 0 0 -0.263672,0.26367 0.2645835,0.2645835 0 0 0 0.263672,0.26367 0.2645835,0.2645835 0 0 0 0.265625,-0.26367 0.2645835,0.2645835 0 0 0 -0.265625,-0.26367 z"
         id="path135651" />
      <path
         style="color:#000000;fill:#ffa185;stroke-width:0.794881;stroke-linecap:round;stroke-linejoin:round;stroke-miterlimit:10;-inkscape-stroke:none"
         d="m 74.728561,347.55274 c 0.07153,-0.1263 0.02796,-0.28665 -0.09766,-0.35937 -0.12675,-0.0729 -0.288562,-0.0291 -0.361328,0.0977 0,0 -1.033293,1.71719 -2.414062,1.71875 -0.710003,-0.004 -1.244509,-0.003 -2.261719,-0.5293 -0.07599,-0.0391 -0.166196,-0.0391 -0.242188,0 -1.016362,0.52619 -1.550565,0.52516 -2.259765,0.5293 -1.381711,0 -2.416016,-1.71875 -2.416016,-1.71875 -0.03501,-0.0606 -0.0926,-0.10482 -0.160156,-0.12305 l -4.2e-5,-5e-5 c -0.06777,-0.0186 -0.140148,-0.009 -0.201172,0.0254 -0.126327,0.0721 -0.170816,0.23256 -0.09961,0.35937 0,0 1.083667,1.98633 2.876953,1.98633 0.677944,-0.004 1.378847,-0.0707 2.380859,-0.55859 1.001938,0.48785 1.700923,0.55478 2.379906,0.55859 1.794286,0 2.876,-1.98633 2.876,-1.98633 z"
         id="path55369"
         sodipodi:nodetypes="cccccccccccccccc" />
      <path
         style="color:#000000;fill:#ffa185;stroke-width:0.794881;stroke-linecap:round;stroke-linejoin:round;stroke-miterlimit:10;-inkscape-stroke:none"
         d="m 62.734335,350.58022 c -0.05143,0.004 -0.08024,0.004 -0.08024,0.004 h -0.455078 c -0.145414,5e-4 -0.263171,0.11826 -0.263672,0.26367 -5.74e-4,0.14617 0.117497,0.26512 0.263672,0.26562 h 0.337417 c 0.08074,-0.17162 0.161832,-0.3431 0.197901,-0.53329 z"
         id="path449836"
         sodipodi:nodetypes="ccccccc" />
      <path
         id="path74730"
         style="color:#000000;fill:#ffa185;stroke-width:3.00428;stroke-linecap:round;stroke-linejoin:round;stroke-miterlimit:10;-inkscape-stroke:none"
         d="m 246.49609,258.82227 c -0.72379,2.70126 -1.40456,4.02036 -3.52929,5.78125 0.11279,0.6876 0.27788,1.42472 0.5039,2.18164 2.94019,-2.25483 4.09693,-4.25911 4.95118,-7.44727 z"
         transform="matrix(0.26458334,0,0,0.26458334,0,280.06666)"
         sodipodi:nodetypes="ccccc" />
      <path
         id="path80780"
         style="color:#000000;fill:#ffa185;stroke-width:3.00428;stroke-linecap:round;stroke-linejoin:round;stroke-miterlimit:10;-inkscape-stroke:none"
         d="m 234.88473,253.98047 c -0.36033,0.16216 -0.75159,0.39888 -1.13672,0.7168 v 2.53711 c 0.002,0.55249 0.45143,1.00023 1.0039,0.99804 0.5496,-0.002 0.9942,-0.44846 0.9961,-0.99804 v -2.69336 c 0,-0.25512 0.0371,-0.47591 0.0371,-0.77344 -0.3142,0.0491 -0.42417,-0.001 -0.90039,0.21289 z"
         transform="matrix(0.26458334,0,0,0.26458334,0,280.06666)"
         sodipodi:nodetypes="cccccscc" />
      <path
         id="path88367"
         style="color:#000000;fill:#ffa185;stroke-width:3.00428;stroke-linecap:round;stroke-linejoin:round;stroke-miterlimit:10;-inkscape-stroke:none"
         d="m 244.99414,244.90625 c -0.17357,0.69257 -0.27679,1.31815 -0.41406,2.04102 -0.10621,0.54224 0.24672,1.068 0.78906,1.17382 0.54227,0.10621 1.06801,-0.24677 1.17383,-0.78906 0.13038,-0.86903 0.36241,-1.8153 0.58018,-2.58593 -0.25309,0.002 -1.04944,-0.009 -2.12901,0.16015 z"
         transform="matrix(0.26458334,0,0,0.26458334,0,280.06666)"
         sodipodi:nodetypes="cccccc" />
      <path
         id="path93421"
         style="color:#000000;fill:#ffa185;stroke-width:3.00428;stroke-linecap:round;stroke-linejoin:round;stroke-miterlimit:10;-inkscape-stroke:none"
         d="m 253.44336,240.92188 c -0.73167,0.15571 -1.51299,0.36251 -2.31445,0.6914 -0.30539,0.88235 -0.66715,1.73365 -1.07227,2.49024 -0.25943,0.48532 -0.0777,1.08967 0.40625,1.35156 0.48531,0.25927 1.08773,0.0776 1.34961,-0.40625 0.67679,-1.26395 1.22987,-2.69036 1.63086,-4.12695 z"
         transform="matrix(0.26458334,0,0,0.26458334,0,280.06666)" />
      <path
         id="path97674"
         style="color:#000000;fill:#ffa185;stroke-width:3.00428;stroke-linecap:round;stroke-linejoin:round;stroke-miterlimit:10;-inkscape-stroke:none"
         d="m 246.51758,268.87109 c -0.55247,0.002 -0.99827,0.45142 -0.9961,1.00391 0,0.38663 0.005,0.80938 0.0156,1.25977 0.58258,0.82915 1.27319,1.60779 2.0957,2.28906 -0.0708,-1.36362 -0.10937,-2.58554 -0.10937,-3.54883 0.002,-0.55536 -0.45051,-1.0061 -1.00586,-1.00391 z"
         transform="matrix(0.26458334,0,0,0.26458334,0,280.06666)"
         sodipodi:nodetypes="sccccss" />
      <path
         id="path442669"
         style="fill:#ffa185;fill-opacity:1;stroke:none;stroke-width:8.74369;stroke-linecap:round;stroke-linejoin:round;stroke-miterlimit:10;stroke-dasharray:none;stroke-opacity:1;stop-color:#000000"
         d="m 251.73633,241.38672 c -1.09878,0.37684 -2.25149,0.95349 -3.38672,1.9414 -0.53989,0.42399 -0.90055,0.91756 -1.22656,1.41797 l -0.55666,1.43182 c 1.49046,-1.863 3.49023,-2.07421 3.49023,-2.07421 l 1.29778,-0.22529 z"
         transform="matrix(0.26458334,0,0,0.26458334,0,280.06666)"
         sodipodi:nodetypes="ccccccc" />
      <path
         id="path447494"
         style="fill:#ffa185;fill-opacity:1;stroke:none;stroke-width:8.74369;stroke-linecap:round;stroke-linejoin:round;stroke-miterlimit:10;stroke-dasharray:none;stroke-opacity:1;stop-color:#000000"
         d="m 235.78517,253.76754 c -0.12564,0.0196 -0.21566,0.0239 -0.3125,0.0351 v 2.23633 c 2.65867,-8.27425 9.10742,-9.09179 9.10742,-9.09179 l 0.48437,-0.13868 0.53124,-1.98233 c -1.4064,0.15439 -3.5291,0.61244 -5.56933,1.99803 -2.71653,2.02879 -3.98916,4.25659 -4.2412,6.94334 z"
         transform="matrix(0.26458334,0,0,0.26458334,0,280.06666)"
         sodipodi:nodetypes="cccccccc" />
      <path
         id="path454051"
         style="fill:#ffa185;fill-opacity:1;stroke:none;stroke-width:8.74369;stroke-linecap:round;stroke-linejoin:round;stroke-miterlimit:10;stroke-dasharray:none;stroke-opacity:1;stop-color:#000000"
         d="m 244.16602,264.98828 -0.8711,1.16797 c 0.47336,1.83303 1.30971,3.83287 2.67188,5.55273 -0.0263,-0.81363 -0.0517,-2.02835 0.0273,-2.15625 -1.06662,-1.40685 -1.14844,-3.92382 -1.14844,-3.92382 z"
         transform="matrix(0.26458334,0,0,0.26458334,0,280.06666)" />
      <path
         style="color:#000000;fill:#ffa185;stroke-width:0.794881;stroke-linecap:round;stroke-linejoin:round;stroke-miterlimit:10;-inkscape-stroke:none"
         d="m 76.212702,350.58214 c 0.05143,0.004 0.08024,0.004 0.08024,0.004 h 0.455078 c 0.145414,5e-4 0.263171,0.11826 0.263672,0.26367 5.74e-4,0.14617 -0.117497,0.26512 -0.263672,0.26562 h -0.337417 c -0.08074,-0.17162 -0.161832,-0.3431 -0.197901,-0.53329 z"
         id="path454349"
         sodipodi:nodetypes="ccccccc" />
      <path
         id="path454351"
         style="color:#000000;fill:#ffa185;stroke-width:0.794881;stroke-linecap:round;stroke-linejoin:round;stroke-miterlimit:10;-inkscape-stroke:none"
         d="m 73.728278,348.54864 c 0.191503,0.71471 0.371623,1.06372 0.933791,1.52962 -0.02984,0.18193 -0.07352,0.37696 -0.133323,0.57723 -0.777925,-0.59659 -1.08398,-1.12689 -1.31,-1.97042 z"
         sodipodi:nodetypes="ccccc" />
      <path
         id="path454353"
         style="color:#000000;fill:#ffa185;stroke-width:0.794881;stroke-linecap:round;stroke-linejoin:round;stroke-miterlimit:10;-inkscape-stroke:none"
         d="m 76.800451,347.26758 c 0.09534,0.0429 0.198858,0.10554 0.300757,0.18965 v 0.67128 c -5.29e-4,0.14618 -0.119441,0.26465 -0.265616,0.26407 -0.145415,-5.3e-4 -0.263048,-0.11866 -0.263551,-0.26407 v -0.71262 c 0,-0.0675 -0.0098,-0.12591 -0.0098,-0.20464 0.08313,0.013 0.112228,-2.6e-4 0.238228,0.0563 z"
         sodipodi:nodetypes="cccccscc" />
      <path
         id="path454355"
         style="color:#000000;fill:#ffa185;stroke-width:0.794881;stroke-linecap:round;stroke-linejoin:round;stroke-miterlimit:10;-inkscape-stroke:none"
         d="m 74.09257,344.8613 c 0.04592,0.18325 0.07323,0.31889 0.109553,0.51015 0.0281,0.14347 -0.06528,0.28258 -0.208772,0.31058 -0.143475,0.0281 -0.282577,-0.0653 -0.310576,-0.20878 -0.0345,-0.22993 -0.09589,-0.48029 -0.153506,-0.68419 0.06696,5.3e-4 0.277665,0.0279 0.563301,0.0723 z"
         sodipodi:nodetypes="ccccccc" />
      <path
         id="path454357"
         style="color:#000000;fill:#ffa185;stroke-width:0.794881;stroke-linecap:round;stroke-linejoin:round;stroke-miterlimit:10;-inkscape-stroke:none"
         d="m 71.890146,343.8125 c 0.193588,0.0412 0.400312,0.0959 0.612365,0.18293 0.0808,0.23345 0.176517,0.45869 0.283705,0.65887 0.06864,0.12841 0.02056,0.28831 -0.107487,0.3576 -0.128405,0.0686 -0.287795,0.0205 -0.357084,-0.10748 -0.179068,-0.33442 -0.325404,-0.71183 -0.431499,-1.09192 z" />
      <path
         id="path454359"
         style="color:#000000;fill:#ffa185;stroke-width:0.794881;stroke-linecap:round;stroke-linejoin:round;stroke-miterlimit:10;-inkscape-stroke:none"
         d="m 73.722592,351.20739 c 0.146175,5.3e-4 0.264126,0.11944 0.263552,0.26562 0,0.10229 -0.0013,0.21415 -0.0041,0.33331 -0.154141,0.21938 -0.336865,0.4254 -0.554487,0.60565 0.01873,-0.36079 0.02894,-0.68409 0.02894,-0.93896 -5.29e-4,-0.14694 0.119198,-0.2662 0.266134,-0.26562 z"
         sodipodi:nodetypes="sccccss" />
      <path
         id="path454361"
         style="fill:#ffa185;fill-opacity:1;stroke:none;stroke-width:2.31343;stroke-linecap:round;stroke-linejoin:round;stroke-miterlimit:10;stroke-dasharray:none;stroke-opacity:1;stop-color:#000000"
         d="m 72.341798,343.93548 c 0.290719,0.0997 0.595707,0.25228 0.89607,0.51367 0.142845,0.11218 0.23827,0.24277 0.324527,0.37517 l 0.147283,0.37883 c -0.394351,-0.49292 -0.923457,-0.5488 -0.923457,-0.5488 l -0.343371,-0.0596 z"
         sodipodi:nodetypes="ccccccc" />
      <path
         id="path454363"
         style="fill:#ffa185;fill-opacity:1;stroke:none;stroke-width:2.31343;stroke-linecap:round;stroke-linejoin:round;stroke-miterlimit:10;stroke-dasharray:none;stroke-opacity:1;stop-color:#000000"
         d="m 76.644889,347.22024 v 0.5917 c -0.703439,-2.18923 -2.409671,-2.42709 -2.409671,-2.42709 l -0.128156,-0.0367 -0.140558,-0.52449 c 0.37211,0.0408 0.933741,0.18359 1.473552,0.55019 0.718749,0.53679 1.055466,1.12622 1.122151,1.83709 z"
         sodipodi:nodetypes="cccccccc" />
      <path
         id="path454365"
         style="fill:#ffa185;fill-opacity:1;stroke:none;stroke-width:2.31343;stroke-linecap:round;stroke-linejoin:round;stroke-miterlimit:10;stroke-dasharray:none;stroke-opacity:1;stop-color:#000000"
         d="m 74.344776,350.18006 0.230478,0.30903 c -0.125243,0.48499 -0.346527,1.01411 -0.706935,1.46916 0.007,-0.21527 0.01368,-0.53667 -0.0072,-0.57051 0.28221,-0.37223 0.303858,-1.03818 0.303858,-1.03818 z" />
    </g>
  </g>
</svg>
